<svg width="24" height="15" viewBox="0 0 24 15" fill="none" xmlns="http://www.w3.org/2000/svg">
<path d="M16.925 1.44956C15.7412 1.44457 14.5752 1.7372 13.534 2.30056C11.978 0.80152 9.89445 -0.0247207 7.734 0.000563664C3.471 -0.000436336 0 3.03656 0 6.76956C0.0152281 7.71551 0.239985 8.64631 0.658092 9.49498C1.0762 10.3436 1.67726 11.0891 2.418 11.6776V14.9996L4.881 13.0596C5.79916 13.3794 6.76472 13.542 7.737 13.5406C9.89746 13.5658 11.981 12.7396 13.537 11.2406C15.0292 12.0386 16.7545 12.2864 18.411 11.9406L20.795 14.1456V10.9586C21.514 10.516 22.1114 9.90121 22.5332 9.16985C22.955 8.43848 23.188 7.61354 23.211 6.76956C23.211 3.83656 20.391 1.45056 16.925 1.45056V1.44956ZM7.737 12.5696C6.79031 12.5713 5.85148 12.3977 4.968 12.0576L4.711 11.9576L3.385 13.0056V11.2056L3.2 11.0636C2.52393 10.5665 1.97101 9.92087 1.58386 9.17639C1.19671 8.43191 0.985671 7.60848 0.967 6.76956C0.967 3.56956 4 0.969564 7.737 0.969564C11.474 0.969564 14.507 3.56956 14.507 6.76956C14.507 9.96956 11.47 12.5696 7.737 12.5696ZM20.061 10.2696L19.826 10.4106V11.9296L18.689 10.8776L18.437 10.9396C17.0132 11.2905 15.5116 11.1339 14.191 10.4966C14.202 10.4826 14.21 10.4676 14.221 10.4546C15.0267 9.41078 15.4679 8.13156 15.477 6.81299C15.486 5.49443 15.0624 4.20928 14.271 3.15456C14.246 3.11556 14.221 3.07656 14.193 3.03956C15.0439 2.6232 15.9797 2.4093 16.927 2.41456C19.86 2.41456 22.246 4.36656 22.246 6.76656C22.2173 7.49031 22.0009 8.19417 21.6182 8.80914C21.2355 9.42412 20.6996 9.92909 20.063 10.2746L20.061 10.2696Z" fill="#4D75E8"/>
<path d="M5.09922 4.33028H10.3742C10.4986 4.32462 10.6161 4.27121 10.7021 4.18115C10.7882 4.0911 10.8362 3.97134 10.8362 3.84678C10.8362 3.72222 10.7882 3.60246 10.7021 3.51241C10.6161 3.42235 10.4986 3.36894 10.3742 3.36328H5.09922C4.97479 3.36894 4.85733 3.42235 4.77128 3.51241C4.68523 3.60246 4.63721 3.72222 4.63721 3.84678C4.63721 3.97134 4.68523 4.0911 4.77128 4.18115C4.85733 4.27121 4.97479 4.32462 5.09922 4.33028Z" fill="#4D75E8"/>
<path d="M10.3742 9.16652H5.09922C4.97479 9.17218 4.85733 9.22559 4.77128 9.31564C4.68523 9.40569 4.63721 9.52546 4.63721 9.65002C4.63721 9.77458 4.68523 9.89433 4.77128 9.98439C4.85733 10.0744 4.97479 10.1279 5.09922 10.1335H10.3742C10.4396 10.1365 10.5048 10.1262 10.5661 10.1032C10.6273 10.0803 10.6833 10.0451 10.7306 9.99995C10.7779 9.95476 10.8155 9.90046 10.8412 9.84031C10.8669 9.78017 10.8802 9.71543 10.8802 9.65002C10.8802 9.58461 10.8669 9.51987 10.8412 9.45973C10.8155 9.39958 10.7779 9.34528 10.7306 9.30009C10.6833 9.2549 10.6273 9.21976 10.5661 9.1968C10.5048 9.17385 10.4396 9.16354 10.3742 9.16652Z" fill="#4D75E8"/>
<path d="M12.5719 6.26367H2.90195C2.77752 6.26933 2.66006 6.32274 2.57401 6.4128C2.48796 6.50285 2.43994 6.62261 2.43994 6.74717C2.43994 6.87173 2.48796 6.99149 2.57401 7.08154C2.66006 7.1716 2.77752 7.22501 2.90195 7.23067H12.5719C12.6964 7.22501 12.8138 7.1716 12.8999 7.08154C12.9859 6.99149 13.034 6.87173 13.034 6.74717C13.034 6.62261 12.9859 6.50285 12.8999 6.4128C12.8138 6.32274 12.6964 6.26933 12.5719 6.26367Z" fill="#4D75E8"/>
<path d="M20.7929 6.2632H16.9249C16.8596 6.26022 16.7943 6.27053 16.7331 6.29348C16.6718 6.31644 16.6159 6.35157 16.5686 6.39676C16.5213 6.44195 16.4836 6.49626 16.4579 6.55641C16.4322 6.61655 16.4189 6.68128 16.4189 6.74669C16.4189 6.8121 16.4322 6.87684 16.4579 6.93699C16.4836 6.99713 16.5213 7.05143 16.5686 7.09662C16.6159 7.14181 16.6718 7.17694 16.7331 7.1999C16.7943 7.22286 16.8596 7.23316 16.9249 7.23019H20.7939C20.9184 7.22453 21.0358 7.17112 21.1219 7.08107C21.2079 6.99101 21.256 6.87125 21.256 6.74669C21.256 6.62214 21.2079 6.50237 21.1219 6.41232C21.0358 6.32227 20.9184 6.26886 20.7939 6.2632H20.7929Z" fill="#4D75E8"/>
<path d="M17.4079 5.29953H19.3419C19.4663 5.29387 19.5837 5.24046 19.6698 5.1504C19.7559 5.06035 19.8039 4.94059 19.8039 4.81603C19.8039 4.69147 19.7559 4.57171 19.6698 4.48166C19.5837 4.3916 19.4663 4.33819 19.3419 4.33253H17.4079C17.3425 4.32956 17.2773 4.33986 17.216 4.36282C17.1548 4.38578 17.0988 4.42091 17.0515 4.4661C17.0042 4.51129 16.9665 4.5656 16.9408 4.62574C16.9151 4.68589 16.9019 4.75062 16.9019 4.81603C16.9019 4.88144 16.9151 4.94618 16.9408 5.00632C16.9665 5.06647 17.0042 5.12077 17.0515 5.16596C17.0988 5.21115 17.1548 5.24629 17.216 5.26925C17.2773 5.2922 17.3425 5.30251 17.4079 5.29953Z" fill="#4D75E8"/>
<path d="M19.3428 8.19972H17.4088C17.3435 8.19675 17.2782 8.20705 17.217 8.23001C17.1557 8.25296 17.0998 8.28809 17.0525 8.33328C17.0052 8.37847 16.9675 8.43277 16.9418 8.49292C16.9161 8.55306 16.9028 8.6178 16.9028 8.68321C16.9028 8.74862 16.9161 8.81336 16.9418 8.8735C16.9675 8.93365 17.0052 8.98795 17.0525 9.03314C17.0998 9.07833 17.1557 9.11347 17.217 9.13643C17.2782 9.15938 17.3435 9.16969 17.4088 9.16671H19.3428C19.4673 9.16105 19.5847 9.10764 19.6708 9.01759C19.7568 8.92754 19.8048 8.80777 19.8048 8.68321C19.8048 8.55865 19.7568 8.4389 19.6708 8.34884C19.5847 8.25879 19.4673 8.20538 19.3428 8.19972Z" fill="#4D75E8"/>
</svg>
