<svg width="12" height="16" viewBox="0 0 12 16" fill="none" xmlns="http://www.w3.org/2000/svg">
<path d="M10.1251 0.725H8.79707L9.24107 1.086C9.42928 1.24665 9.59719 1.42967 9.74107 1.631C9.90618 1.8645 10.0406 2.11825 10.1411 2.386C10.2567 2.69991 10.3133 3.0325 10.3081 3.367C10.3139 3.68707 10.2603 4.00545 10.1501 4.306C10.0522 4.57058 9.91758 4.82003 9.75007 5.047C9.58533 5.26692 9.39348 5.46515 9.17907 5.637L8.51507 6.145C8.37807 6.28 8.24507 6.42 8.11507 6.567C7.97984 6.7192 7.90824 6.91752 7.91507 7.121C7.91117 7.22065 7.93013 7.31986 7.97052 7.41104C8.01091 7.50222 8.07165 7.58294 8.14807 7.647C8.28323 7.7617 8.42588 7.86726 8.57507 7.963L9.34107 8.517C9.55207 8.699 9.75007 8.881 9.94107 9.067C10.1292 9.25083 10.3 9.45169 10.4511 9.667C10.6016 9.88595 10.7198 10.1254 10.8021 10.378C10.8904 10.6672 10.9326 10.9686 10.9271 11.271C10.9256 11.749 10.8072 12.2193 10.5821 12.641C10.332 13.1112 9.98174 13.5209 9.55607 13.841C9.04924 14.2213 8.47863 14.5081 7.87107 14.688C7.11872 14.909 6.33709 15.0143 5.55307 15C4.87612 15.0118 4.20068 14.9321 3.54507 14.763C3.03931 14.6336 2.5587 14.4207 2.12307 14.133C1.77436 13.9032 1.48428 13.595 1.27607 13.233C1.09439 12.9106 0.998336 12.5471 0.99707 12.177C1.01528 11.7518 1.13348 11.3369 1.34207 10.966C1.63821 10.4528 2.08028 10.0393 2.61207 9.778C2.94443 9.59419 3.29497 9.44539 3.65807 9.334C4.01882 9.22219 4.3862 9.13301 4.75807 9.067C5.12274 9.003 5.46907 8.95733 5.79707 8.93C6.12307 8.904 6.40507 8.883 6.63807 8.869C6.49129 8.6873 6.35506 8.49732 6.23007 8.3C6.09832 8.06508 6.0346 7.7981 6.04607 7.529C6.04213 7.38679 6.06311 7.24498 6.10807 7.11C6.14907 6.997 6.19407 6.883 6.24607 6.77C6.14007 6.783 6.03107 6.793 5.91607 6.799C5.80107 6.805 5.68607 6.81 5.57607 6.81C5.06323 6.82011 4.55344 6.72869 4.07607 6.541C3.66649 6.37846 3.29076 6.14108 2.96807 5.841C2.67223 5.56249 2.43995 5.22345 2.28707 4.847C2.13661 4.48748 2.05878 4.10174 2.05807 3.712C2.06509 3.23246 2.1774 2.76033 2.38707 2.329C2.62298 1.84154 2.9646 1.41281 3.38707 1.074C3.94405 0.630312 4.59884 0.325887 5.29707 0.186C5.90606 0.0674615 6.52467 0.00519918 7.14507 0L11.4881 0L10.1251 0.725ZM9.61107 12.025C9.61399 11.7961 9.57221 11.5689 9.48807 11.356C9.39811 11.1416 9.27269 10.9438 9.11707 10.771C8.90798 10.5443 8.67305 10.343 8.41707 10.171L7.38607 9.451C7.31481 9.42516 7.23985 9.41097 7.16407 9.409H6.90407C6.85007 9.409 6.74907 9.409 6.59807 9.419C6.44707 9.429 6.26607 9.441 6.05407 9.463C5.84207 9.485 5.61807 9.519 5.37507 9.563C5.14151 9.60131 4.91069 9.65475 4.68407 9.723C4.56107 9.763 4.40107 9.823 4.20107 9.908C3.98514 9.99877 3.78314 10.1196 3.60107 10.267C3.39505 10.4319 3.22144 10.6337 3.08907 10.862C2.93737 11.1262 2.86224 11.4275 2.87207 11.732C2.8678 12.0688 2.95563 12.4004 3.12607 12.691C3.31457 12.9958 3.56791 13.2553 3.86807 13.451C4.22421 13.6865 4.61986 13.8558 5.03607 13.951C5.53527 14.0694 6.04705 14.1265 6.56007 14.121C7.36594 14.1795 8.16882 13.9727 8.84607 13.532C9.08669 13.3611 9.28215 13.1343 9.41559 12.8711C9.54904 12.6078 9.61647 12.3161 9.61207 12.021L9.61107 12.025ZM7.92907 5.686C8.14855 5.48635 8.30086 5.22367 8.36507 4.934C8.41186 4.71426 8.43797 4.49061 8.44307 4.266C8.43761 3.87554 8.38387 3.48726 8.28307 3.11C8.17809 2.70058 8.0144 2.30851 7.79707 1.946C7.58767 1.59463 7.31389 1.2859 6.99007 1.036C6.66821 0.789374 6.27251 0.658648 5.86707 0.665C5.58594 0.666701 5.30854 0.729483 5.05407 0.849C4.80667 0.959815 4.58344 1.11815 4.39707 1.315C4.22332 1.5099 4.09763 1.74279 4.03007 1.995C3.96703 2.24376 3.93512 2.49938 3.93507 2.756C3.94024 3.12536 3.99028 3.49271 4.08407 3.85C4.18538 4.25072 4.34761 4.63351 4.56507 4.985C4.77748 5.33034 5.05374 5.63205 5.37907 5.874C5.71585 6.11872 6.1239 6.2456 6.54007 6.235C6.80473 6.23588 7.067 6.18492 7.31207 6.085C7.54318 5.99623 7.7533 5.86035 7.92907 5.686Z" fill="#4D75E8"/>
</svg>
