<svg width="38" height="26" viewBox="0 0 38 26" fill="none" xmlns="http://www.w3.org/2000/svg">
<path opacity="0.39" d="M12.0704 0.369016C12.317 0.13047 12.6472 -0.00199043 12.9903 2.26131e-05C13.3334 0.00203566 13.662 0.138362 13.9058 0.379786C14.1496 0.62121 14.2891 0.94852 14.2944 1.29157C14.2998 1.63462 14.1705 1.96612 13.9344 2.21502L4.48136 11.668H35.6814C35.8538 11.6671 36.0247 11.7001 36.1844 11.7653C36.344 11.8304 36.4893 11.9264 36.6118 12.0476C36.7344 12.1689 36.8319 12.3131 36.8987 12.4721C36.9656 12.631 37.0004 12.8016 37.0014 12.974C37.0011 13.3256 36.8615 13.6628 36.6132 13.9117C36.3648 14.1606 36.028 14.301 35.6764 14.302H4.48136L13.9354 23.738C14.1778 23.9877 14.3133 24.322 14.3133 24.67C14.3133 25.018 14.1778 25.3523 13.9354 25.602C13.8138 25.7259 13.6688 25.8242 13.5087 25.8914C13.3487 25.9585 13.1769 25.9931 13.0034 25.9931C12.8298 25.9931 12.658 25.9585 12.498 25.8914C12.338 25.8242 12.1929 25.7259 12.0714 25.602L0.378359 13.902C0.13591 13.656 0 13.3244 0 12.979C0 12.6336 0.13591 12.302 0.378359 12.056L12.0704 0.369016Z" fill="white"/>
</svg>
