<svg width="37" height="27" viewBox="0 0 37 27" fill="none" xmlns="http://www.w3.org/2000/svg">
<path d="M12.0699 0.390501C12.3165 0.151954 12.6467 0.0194939 12.9898 0.021507C13.3329 0.02352 13.6615 0.159846 13.9053 0.40127C14.1491 0.642694 14.2886 0.970004 14.2939 1.31306C14.2993 1.65611 14.17 1.9876 13.9339 2.2365L4.48087 11.6895H35.6809C35.8533 11.6886 36.0242 11.7216 36.1839 11.7868C36.3435 11.8519 36.4888 11.9478 36.6114 12.0691C36.7339 12.1904 36.8314 12.3346 36.8983 12.4936C36.9651 12.6525 37 12.8231 37.0009 12.9955C37.0006 13.3471 36.861 13.6843 36.6127 13.9332C36.3643 14.1821 36.0275 14.3224 35.6759 14.3235H4.48087L13.9349 23.7595C14.1773 24.0092 14.3129 24.3435 14.3129 24.6915C14.3129 25.0395 14.1773 25.3738 13.9349 25.6235C13.8133 25.7473 13.6683 25.8457 13.5082 25.9129C13.3482 25.98 13.1764 26.0146 13.0029 26.0146C12.8293 26.0146 12.6575 25.98 12.4975 25.9129C12.3375 25.8457 12.1924 25.7473 12.0709 25.6235L0.377871 13.9235C0.135421 13.6775 -0.000488281 13.3459 -0.000488281 13.0005C-0.000488281 12.6551 0.135421 12.3235 0.377871 12.0775L12.0699 0.390501Z" fill="white"/>
</svg>
