<svg width="37" height="27" viewBox="0 0 37 27" fill="none" xmlns="http://www.w3.org/2000/svg">
<path d="M24.9296 26.6193C24.683 26.8578 24.3528 26.9903 24.0097 26.9883C23.6666 26.9862 23.338 26.8499 23.0942 26.6085C22.8504 26.3671 22.7109 26.0398 22.7056 25.6967C22.7002 25.3537 22.8295 25.0222 23.0656 24.7733L32.5186 15.3203L1.31864 15.3203C1.14621 15.3212 0.975296 15.2881 0.815643 15.223C0.655991 15.1579 0.510731 15.0619 0.388157 14.9407C0.265583 14.8194 0.168095 14.6751 0.101261 14.5162C0.0344276 14.3572 -0.000442505 14.1867 -0.00135803 14.0143C-0.00109482 13.6627 0.138489 13.3255 0.386833 13.0766C0.635178 12.8277 0.972038 12.6873 1.32364 12.6863L32.5186 12.6863L23.0646 3.25026C22.8222 3.00057 22.6867 2.66627 22.6867 2.31826C22.6867 1.97026 22.8222 1.63595 23.0646 1.38626C23.1862 1.26242 23.3312 1.16404 23.4913 1.09689C23.6513 1.02974 23.8231 0.995148 23.9966 0.995148C24.1702 0.995148 24.342 1.02974 24.502 1.09689C24.662 1.16404 24.8071 1.26242 24.9286 1.38626L36.6216 13.0863C36.8641 13.3323 37 13.6638 37 14.0093C37 14.3547 36.8641 14.6862 36.6216 14.9323L24.9296 26.6193Z" fill="white"/>
</svg>
