<svg width="37" height="27" viewBox="0 0 37 27" fill="none" xmlns="http://www.w3.org/2000/svg">
<path d="M24.93 26.6193C24.6834 26.8578 24.3532 26.9903 24.0101 26.9883C23.667 26.9862 23.3384 26.8499 23.0946 26.6085C22.8508 26.3671 22.7113 26.0398 22.706 25.6967C22.7006 25.3537 22.8299 25.0222 23.066 24.7733L32.519 15.3203L1.31901 15.3203C1.14658 15.3212 0.975662 15.2881 0.81601 15.223C0.656357 15.1579 0.511097 15.0619 0.388523 14.9407C0.265949 14.8194 0.168461 14.6751 0.101627 14.5162C0.0347939 14.3572 -7.62939e-05 14.1867 -0.000991821 14.0143C-0.000728607 13.6627 0.138855 13.3255 0.387199 13.0766C0.635544 12.8277 0.972404 12.6873 1.32401 12.6863L32.519 12.6863L23.065 3.25026C22.8226 3.00057 22.687 2.66627 22.687 2.31826C22.687 1.97026 22.8226 1.63595 23.065 1.38626C23.1866 1.26242 23.3316 1.16404 23.4916 1.09689C23.6517 1.02974 23.8235 0.995148 23.997 0.995148C24.1706 0.995148 24.3424 1.02974 24.5024 1.09689C24.6624 1.16404 24.8074 1.26242 24.929 1.38626L36.622 13.0863C36.8645 13.3323 37.0004 13.6638 37.0004 14.0093C37.0004 14.3547 36.8645 14.6862 36.622 14.9323L24.93 26.6193Z" fill="white"/>
</svg>
