<svg width="33" height="23" viewBox="0 0 33 23" fill="none" xmlns="http://www.w3.org/2000/svg">
<path d="M16.093 1.80859H14.484C12.7182 1.81093 10.9909 2.32545 9.51169 3.28979C8.03244 4.25412 6.86469 5.62686 6.15 7.24159C6.07403 7.19825 5.98845 7.17453 5.901 7.17259H0.536001C0.465528 7.17259 0.395747 7.18649 0.330651 7.21349C0.265556 7.24049 0.206423 7.28006 0.156638 7.32994C0.106852 7.37982 0.0673918 7.43902 0.0405141 7.50417C0.0136365 7.56931 -0.000130546 7.63912 9.32921e-07 7.70959V16.2926C9.32921e-07 16.4348 0.0564722 16.5711 0.156992 16.6716C0.257511 16.7721 0.393845 16.8286 0.536001 16.8286H5.9C5.98745 16.8267 6.07303 16.8029 6.149 16.7596C6.86369 18.3743 8.03144 19.7471 9.51069 20.7114C10.9899 21.6757 12.7172 22.1903 14.483 22.1926H16.092C16.1624 22.1926 16.2321 22.1787 16.2971 22.1518C16.3622 22.1249 16.4212 22.0854 16.471 22.0356C16.5208 21.9858 16.5603 21.9267 16.5872 21.8617C16.6141 21.7967 16.628 21.727 16.628 21.6566V2.3446C16.628 2.20261 16.5717 2.06643 16.4714 1.96594C16.3711 1.86545 16.235 1.80886 16.093 1.80859ZM5.364 15.7566H1.073V8.2466H5.364V15.7566ZM15.556 21.1206H14.484C12.3509 21.118 10.3059 20.2694 8.79754 18.7611C7.2892 17.2527 6.44065 15.2077 6.438 13.0746V10.9276C6.44065 8.79448 7.2892 6.74948 8.79754 5.24113C10.3059 3.73279 12.3509 2.88424 14.484 2.88159H15.557L15.556 21.1206Z" fill="white"/>
<path d="M27.7351 0.996094L26.9761 1.7551C29.6883 4.47343 31.2115 8.15661 31.2115 11.9966C31.2115 15.8366 29.6883 19.5198 26.9761 22.2381L27.7351 22.9961C30.6484 20.0766 32.2845 16.1205 32.2845 11.9961C32.2845 7.87164 30.6484 3.91564 27.7351 0.996094Z" fill="white"/>
<path d="M24.7021 4.0332L23.9431 4.7922C25.8517 6.70531 26.9236 9.29734 26.9236 11.9997C26.9236 14.7021 25.8517 17.2941 23.9431 19.2072L24.7021 19.9652C26.8118 17.8509 27.9966 14.986 27.9966 11.9992C27.9966 9.01237 26.8118 6.14752 24.7021 4.0332Z" fill="white"/>
<path d="M21.6679 7.06836L20.9089 7.82736C22.014 8.93478 22.6347 10.4354 22.6347 11.9999C22.6347 13.5644 22.014 15.0649 20.9089 16.1724L21.6679 16.9304C22.9736 15.6215 23.7069 13.8482 23.7069 11.9994C23.7069 10.1506 22.9736 8.37725 21.6679 7.06836Z" fill="white"/>
</svg>
