<svg width="33" height="20" viewBox="0 0 33 20" fill="none" xmlns="http://www.w3.org/2000/svg">
<path d="M31.064 2.67909C30.681 2.69448 30.3136 2.83498 30.018 3.07909L26.543 5.69609C26.4128 4.40882 25.8097 3.21562 24.8504 2.34741C23.8911 1.47919 22.6438 0.997694 21.35 0.996094H5.218C3.83415 0.997947 2.50755 1.54871 1.5293 2.52752C0.551054 3.50633 0.00105817 4.83324 0 6.21709L0 14.4391C0.001588 15.8225 0.55185 17.1488 1.53007 18.127C2.50829 19.1052 3.83459 19.6555 5.218 19.6571H21.352C22.6458 19.6555 23.8931 19.174 24.8524 18.3058C25.8117 17.4376 26.4148 16.2444 26.545 14.9571L30.019 17.5741C30.3145 17.8183 30.6819 17.9589 31.065 17.9741C31.2483 17.9766 31.4294 17.934 31.5925 17.8501C31.7555 17.7663 31.8954 17.6437 32 17.4931C32.2037 17.1823 32.3048 16.8154 32.289 16.4441V4.21109C32.287 3.15309 31.672 2.67909 31.064 2.67909ZM31.218 16.4391C31.231 16.5883 31.1994 16.738 31.127 16.8691C31.1212 16.8808 31.112 16.8903 31.1005 16.8964C31.089 16.9025 31.0759 16.9049 31.063 16.9031C30.9137 16.8836 30.7741 16.8186 30.663 16.7171L26.363 13.4741C26.2837 13.4141 26.1892 13.3775 26.0902 13.3684C25.9912 13.3592 25.8916 13.3779 25.8026 13.4222C25.7137 13.4666 25.6388 13.535 25.5866 13.6196C25.5344 13.7042 25.5068 13.8017 25.507 13.9011V14.4391C25.5057 15.5393 25.068 16.5941 24.29 17.3721C23.512 18.1501 22.4572 18.5878 21.357 18.5891H5.218C4.11784 18.5875 3.06319 18.1498 2.28526 17.3718C1.50733 16.5939 1.06959 15.5393 1.068 14.4391V6.21909C1.06932 5.11885 1.50698 4.06405 2.28497 3.28606C3.06296 2.50807 4.11776 2.07042 5.218 2.06909H21.352C22.4522 2.07042 23.507 2.50807 24.285 3.28606C25.063 4.06405 25.5007 5.11885 25.502 6.21909V6.75109C25.5018 6.85052 25.5294 6.94802 25.5816 7.03263C25.6339 7.11723 25.7087 7.18556 25.7976 7.22995C25.8866 7.27433 25.9862 7.29299 26.0852 7.28383C26.1842 7.27467 26.2787 7.23805 26.358 7.17809L30.658 3.93509C30.769 3.83344 30.9087 3.76849 31.058 3.74909C31.158 3.74909 31.212 3.98809 31.212 4.21309V16.4391H31.218ZM17.218 9.21809L12.35 5.55009C12.1286 5.36816 11.8534 5.26445 11.567 5.25509C11.083 5.25509 10.594 5.61709 10.594 6.42509V14.2191C10.594 15.0271 11.083 15.3891 11.567 15.3891C11.8533 15.3793 12.1284 15.2756 12.35 15.0941L17.219 11.4261C17.399 11.3036 17.5464 11.1389 17.6483 10.9464C17.7501 10.7539 17.8034 10.5394 17.8034 10.3216C17.8034 10.1038 17.7501 9.88932 17.6483 9.69682C17.5464 9.50431 17.399 9.33962 17.219 9.21709L17.218 9.21809ZM16.576 10.5741L11.7 14.2471L11.657 14.2771C11.657 14.2618 11.657 14.2441 11.657 14.2241V6.43009C11.657 6.41009 11.657 6.39309 11.657 6.37709L11.7 6.40709L16.568 10.0751C16.6146 10.0982 16.6538 10.1338 16.6812 10.178C16.7086 10.2222 16.7231 10.2731 16.7231 10.3251C16.7231 10.3771 16.7086 10.428 16.6812 10.4722C16.6538 10.5164 16.6146 10.552 16.568 10.5751L16.576 10.5741Z" fill="white"/>
</svg>
